<svg width="129" height="36" viewBox="0 0 129 36" fill="none" xmlns="http://www.w3.org/2000/svg">
<rect y="2" width="32" height="32" rx="5" fill="url(#paint0_linear_1_7)"/>
<path d="M18.2457 17.9517H15.0973C13.8662 17.9517 12.7706 17.7547 11.8104 17.3608C10.8501 16.9607 10.0961 16.4098 9.5483 15.7081C9.00663 15.0064 8.7358 14.1939 8.7358 13.2706C8.7358 12.1319 9.02817 11.1562 9.61293 10.3438C10.2038 9.53125 11.041 8.90956 12.1243 8.47869C13.2138 8.04782 14.5095 7.83239 16.0114 7.83239C17.3655 7.83239 18.572 8.06013 19.6307 8.51562C20.6894 8.96496 21.5204 9.58972 22.1236 10.3899C22.733 11.1839 23.0407 12.098 23.0469 13.1321H18.5597C18.5535 12.5843 18.3319 12.1688 17.8949 11.8857C17.464 11.5964 16.83 11.4517 15.9929 11.4517C15.3712 11.4517 14.8572 11.5317 14.451 11.6918C14.0447 11.8456 13.7431 12.0795 13.5462 12.3935C13.3492 12.7012 13.2507 13.089 13.2507 13.5568C13.2507 13.9938 13.34 14.3724 13.5185 14.6925C13.7031 15.0064 13.9863 15.2495 14.3679 15.4219C14.7557 15.5942 15.2481 15.6804 15.8452 15.6804H18.2457V17.9517ZM15.0973 16.8438H18.2457V19.0781H15.8452C15.1804 19.0781 14.6357 19.1674 14.2109 19.3459C13.7862 19.5244 13.4723 19.7891 13.2692 20.1399C13.0661 20.4846 12.9645 20.9124 12.9645 21.4233C12.9645 21.9711 13.0784 22.4112 13.3061 22.7436C13.54 23.0698 13.8693 23.3068 14.294 23.4545C14.7249 23.6023 15.2389 23.6761 15.8359 23.6761C16.8208 23.6761 17.5625 23.513 18.0611 23.1868C18.5597 22.8544 18.812 22.4143 18.8182 21.8665H23.3331C23.3269 22.9621 23.0069 23.9162 22.3729 24.7287C21.7389 25.535 20.8679 26.1598 19.7599 26.603C18.6581 27.04 17.4025 27.2585 15.9929 27.2585C14.4295 27.2585 13.0814 27.0492 11.9489 26.6307C10.8224 26.206 9.95455 25.5812 9.34517 24.7564C8.74195 23.9316 8.44034 22.916 8.44034 21.7095C8.44034 20.1522 9.02509 18.9519 10.1946 18.1087C11.3641 17.2654 12.9983 16.8438 15.0973 16.8438Z" fill="white"/>
<path d="M37.4062 29V7.18182H53.1307V11.9545H43.3295V15.7045H52.321V20.4773H43.3295V24.2273H53.0881V29H37.4062ZM62.6343 19.7955V29H56.7536V12.6364H62.336V15.7472H62.5064C62.8615 14.7102 63.4865 13.897 64.3814 13.3075C65.2834 12.718 66.3346 12.4233 67.5348 12.4233C68.6925 12.4233 69.6975 12.6896 70.5498 13.2223C71.4091 13.7479 72.0732 14.4723 72.5419 15.3956C73.0178 16.3189 73.2522 17.3736 73.2451 18.5597V29H67.3644V19.7955C67.3715 18.9858 67.1655 18.3501 66.7465 17.8885C66.3346 17.4268 65.7593 17.196 65.0206 17.196C64.5377 17.196 64.1151 17.3026 63.7529 17.5156C63.3978 17.7216 63.1243 18.0199 62.9326 18.4105C62.7408 18.794 62.6414 19.2557 62.6343 19.7955ZM84.589 29.2983C82.8419 29.2983 81.3362 28.9645 80.072 28.2969C78.8149 27.6222 77.8454 26.6562 77.1636 25.3991C76.4889 24.1349 76.1515 22.6222 76.1515 20.8608C76.1515 19.1705 76.4924 17.6932 77.1743 16.429C77.8561 15.1648 78.8184 14.1811 80.0613 13.478C81.3042 12.7749 82.7708 12.4233 84.4612 12.4233C85.697 12.4233 86.8156 12.6151 87.817 12.9986C88.8184 13.3821 89.6743 13.9396 90.3845 14.6712C91.0947 15.3956 91.6416 16.2763 92.0251 17.3132C92.4086 18.3501 92.6004 19.5185 92.6004 20.8182V22.1818H77.9839V18.9432H87.1885C87.1814 18.4744 87.0606 18.0625 86.8262 17.7074C86.599 17.3452 86.29 17.0646 85.8994 16.8658C85.5159 16.6598 85.0791 16.5568 84.589 16.5568C84.1132 16.5568 83.6764 16.6598 83.2787 16.8658C82.8809 17.0646 82.5613 17.3416 82.3199 17.6967C82.0855 18.0518 81.9612 18.4673 81.947 18.9432V22.4375C81.947 22.9631 82.0571 23.4318 82.2772 23.8438C82.4974 24.2557 82.8135 24.5788 83.2254 24.8132C83.6373 25.0476 84.1345 25.1648 84.7169 25.1648C85.1217 25.1648 85.491 25.108 85.8248 24.9943C86.1657 24.8807 86.4569 24.7173 86.6984 24.5043C86.9399 24.2841 87.1174 24.0213 87.2311 23.7159H92.6004C92.4157 24.8523 91.9789 25.8395 91.29 26.6776C90.6011 27.5085 89.6885 28.1548 88.5521 28.6165C87.4228 29.071 86.1018 29.2983 84.589 29.2983ZM105.401 12.6364V16.8977H94.4495V12.6364H105.401ZM96.5376 29V12.1676C96.5376 10.8182 96.779 9.69957 97.262 8.81179C97.745 7.92401 98.4268 7.25994 99.3075 6.8196C100.188 6.37926 101.225 6.15909 102.418 6.15909C103.164 6.15909 103.888 6.21591 104.592 6.32955C105.302 6.44318 105.827 6.54261 106.168 6.62784L105.316 10.8466C105.103 10.7827 104.854 10.733 104.57 10.6974C104.286 10.6548 104.038 10.6335 103.825 10.6335C103.271 10.6335 102.898 10.7507 102.706 10.9851C102.514 11.2195 102.418 11.5284 102.418 11.9119V29H96.5376ZM118.029 12.6364V16.8977H107.248V12.6364H118.029ZM109.336 8.71591H115.216V23.7372C115.216 23.9645 115.255 24.1562 115.334 24.3125C115.412 24.4616 115.532 24.5753 115.696 24.6534C115.859 24.7244 116.069 24.7599 116.324 24.7599C116.502 24.7599 116.708 24.7386 116.942 24.696C117.184 24.6534 117.361 24.6179 117.475 24.5895L118.327 28.723C118.064 28.8011 117.688 28.897 117.198 29.0107C116.715 29.1243 116.14 29.1989 115.472 29.2344C114.123 29.3054 112.99 29.1669 112.074 28.8189C111.157 28.4638 110.469 27.9062 110.007 27.1463C109.545 26.3864 109.322 25.4347 109.336 24.2912V8.71591ZM121.029 29V12.6364H126.909V29H121.029ZM123.969 10.9318C123.173 10.9318 122.492 10.669 121.923 10.1435C121.355 9.6179 121.071 8.9858 121.071 8.24716C121.071 7.50852 121.355 6.87642 121.923 6.35085C122.492 5.82528 123.173 5.5625 123.969 5.5625C124.771 5.5625 125.453 5.82528 126.014 6.35085C126.583 6.87642 126.867 7.50852 126.867 8.24716C126.867 8.9858 126.583 9.6179 126.014 10.1435C125.453 10.669 124.771 10.9318 123.969 10.9318Z" fill="white"/>
<defs>
<linearGradient id="paint0_linear_1_7" x1="-2.13333" y1="18" x2="41.0667" y2="18" gradientUnits="userSpaceOnUse">
<stop stop-color="#5190D4"/>
<stop offset="1" stop-color="#D21297"/>
</linearGradient>
</defs>
</svg>
